<svg xmlns="http://www.w3.org/2000/svg" xmlns:xlink="http://www.w3.org/1999/xlink" viewBox="0 0 71.48 54.21"><defs><style>.cls-1{fill:url(#linear-gradient);}.cls-2{fill:#230f01;}.cls-3{fill:#45190e;}</style><linearGradient id="linear-gradient" y1="28.87" x2="71.21" y2="28.87" gradientUnits="userSpaceOnUse"><stop offset="0" stop-color="#42210b"/><stop offset="1" stop-color="#490e13"/></linearGradient></defs><title>treetop3</title><g id="Layer_2" data-name="Layer 2"><g id="Layer_1-2" data-name="Layer 1"><path class="cls-1" d="M0,54.21A129.53,129.53,0,0,0,.21,39.54c-.22-5.22-.06-8-.09-13,0-4.49,0-11,.09-19a76.33,76.33,0,0,1,34-3.4,76.69,76.69,0,0,1,37,15.4l-2,30Z"/><ellipse class="cls-2" cx="35.88" cy="14.76" rx="12.86" ry="36.33" transform="translate(13.81 46.67) rotate(-77.68)"/><path class="cls-3" d="M34.89,21.67q28.83,2.61,29.63-1,.18-.83-1.12-2a6.65,6.65,0,0,0-2.48-2.57c-1.55-.88-2.81-.63-3.7-1.69a3.47,3.47,0,0,1-.71-2.29A64.3,64.3,0,0,0,39.34,6.44c-12.17-2.18-23.2-.44-23.19.2A45.87,45.87,0,0,1,38.6,7.84C20.24,7.51,16.16,7,16.15,6.65c-2.74.57-8.4,1.75-8.61,4-.28,2.89,8.35,6,12.53,7.47A69.7,69.7,0,0,0,34.89,21.67Z"/></g></g></svg>