<svg xmlns="http://www.w3.org/2000/svg" xmlns:xlink="http://www.w3.org/1999/xlink" viewBox="0 0 70.24 55.54"><defs><style>.cls-1{fill:url(#linear-gradient);}.cls-2{fill:#230f01;}.cls-3{fill:#45190e;}</style><linearGradient id="linear-gradient" y1="29.09" x2="69.55" y2="29.09" gradientUnits="userSpaceOnUse"><stop offset="0" stop-color="#42210b"/><stop offset="1" stop-color="#490e13"/></linearGradient></defs><title>treetop1</title><g id="Layer_2" data-name="Layer 2"><g id="Layer_1-2" data-name="Layer 1"><path class="cls-1" d="M.34,55.54A129.53,129.53,0,0,0,.55,40.87c-.31-7.32-1-9.65-.09-13,1-3.58,3.9-8.48,13.09-13a78.09,78.09,0,0,1,21-9.4,79.06,79.06,0,0,1,35-1.6V48.16Z"/><ellipse class="cls-2" cx="35.22" cy="16.09" rx="36.33" ry="12.86" transform="translate(-3.12 10.7) rotate(-16.54)"/><path class="cls-3" d="M36.71,22.81Q63.22,11.18,62.18,7.64q-.24-.82-1.94-1.2a6.65,6.65,0,0,0-3.41-1.06c-1.78,0-2.76.8-4.06.31A3.47,3.47,0,0,1,51,4a64.3,64.3,0,0,0-17.78,3.3C21.54,11.29,12.73,18.14,13,18.7A45.87,45.87,0,0,1,33.29,8.91C17,17.48,13.24,19,13,18.7c-2.12,1.82-6.51,5.59-5.6,7.68C8.59,29,17.63,27.58,22,26.87A69.7,69.7,0,0,0,36.71,22.81Z"/></g></g></svg>