<svg xmlns="http://www.w3.org/2000/svg" xmlns:xlink="http://www.w3.org/1999/xlink" viewBox="0 0 71.66 60.33"><defs><style>.cls-1{fill:url(#linear-gradient);}.cls-2{fill:#230f01;}.cls-3{fill:#45190e;}</style><linearGradient id="linear-gradient" x1="0.65" y1="34.49" x2="71.65" y2="34.49" gradientUnits="userSpaceOnUse"><stop offset="0" stop-color="#42210b"/><stop offset="1" stop-color="#490e13"/></linearGradient></defs><title>treetop2</title><g id="Layer_2" data-name="Layer 2"><g id="Layer_1-2" data-name="Layer 1"><path class="cls-1" d="M1.45,60.33a127.71,127.71,0,0,0,.21-14.67c-.14-3.4,0-7.72-.09-13s-.36-11.93-.92-20q17.4-1.37,35.53-2.4t35.47-1.6l-1,48Z"/><ellipse class="cls-2" cx="35.83" cy="12.89" rx="35.84" ry="12.86" transform="translate(-0.35 1) rotate(-1.6)"/><path class="cls-3" d="M36.26,19.82Q65.15,18,65.38,14.3q.05-.85-1.41-1.8a6.65,6.65,0,0,0-2.84-2.16c-1.67-.63-2.87-.19-3.92-1.1a3.47,3.47,0,0,1-1.05-2.15,64.3,64.3,0,0,0-17.83-3C26,3.8,15.33,7.21,15.44,7.85A45.87,45.87,0,0,1,37.81,5.59C19.61,8.07,15.5,8.23,15.44,7.85c-2.62,1-8,3-7.9,5.3C7.71,16,16.7,17.76,21.07,18.6A69.7,69.7,0,0,0,36.26,19.82Z"/></g></g></svg>