<svg xmlns="http://www.w3.org/2000/svg" xmlns:xlink="http://www.w3.org/1999/xlink" viewBox="0 0 194.71 801"><defs><style>.cls-1{fill:url(#linear-gradient);}.cls-2{fill:url(#linear-gradient-2);}.cls-3{fill:url(#linear-gradient-3);}.cls-4{fill:url(#linear-gradient-4);}.cls-5{fill:url(#linear-gradient-5);}.cls-6{fill:url(#linear-gradient-6);}.cls-7{fill:url(#linear-gradient-7);}.cls-8{fill:#261313;}.cls-9{fill:#3a1903;}.cls-10{fill:#68300b;}.cls-11{fill:#933f06;}.cls-12{fill:#2d0606;}.cls-13{fill:#2d1101;}.cls-14{fill:url(#linear-gradient-8);}.cls-15{fill:none;}.cls-16{fill:#230202;}.cls-17{fill:url(#linear-gradient-9);}.cls-18{fill:url(#linear-gradient-10);}.cls-19{fill:url(#linear-gradient-11);}.cls-20{fill:url(#linear-gradient-12);}.cls-21{fill:url(#linear-gradient-13);}.cls-22{fill:url(#linear-gradient-14);}.cls-23{fill:url(#linear-gradient-15);}.cls-24{fill:url(#linear-gradient-16);}</style><linearGradient id="linear-gradient" x1="108.35" y1="3" x2="109.81" y2="3" gradientUnits="userSpaceOnUse"><stop offset="0" stop-color="#42210b"/><stop offset="1" stop-color="#490e13"/></linearGradient><linearGradient id="linear-gradient-2" x1="109.45" y1="3.19" x2="110.58" y2="3.19" xlink:href="#linear-gradient"/><linearGradient id="linear-gradient-3" x1="54.44" y1="1.7" x2="109.34" y2="1.7" xlink:href="#linear-gradient"/><linearGradient id="linear-gradient-4" x1="108.26" y1="3.8" x2="109.45" y2="3.8" xlink:href="#linear-gradient"/><linearGradient id="linear-gradient-5" x1="48.2" y1="40.53" x2="117.85" y2="40.53" xlink:href="#linear-gradient"/><linearGradient id="linear-gradient-6" x1="48.21" y1="90.99" x2="117.92" y2="90.99" xlink:href="#linear-gradient"/><linearGradient id="linear-gradient-7" x1="0" y1="447.11" x2="164.61" y2="447.11" xlink:href="#linear-gradient"/><linearGradient id="linear-gradient-8" x1="46.22" y1="684.77" x2="46.22" y2="684.77" xlink:href="#linear-gradient"/><linearGradient id="linear-gradient-9" x1="24.21" y1="302.5" x2="49.42" y2="302.5" xlink:href="#linear-gradient"/><linearGradient id="linear-gradient-10" x1="23.21" y1="512.5" x2="47.46" y2="512.5" xlink:href="#linear-gradient"/><linearGradient id="linear-gradient-11" x1="108.21" y1="329.5" x2="132.46" y2="329.5" gradientTransform="matrix(-1, 0, 0, 1, 246.66, 0)" xlink:href="#linear-gradient"/><linearGradient id="linear-gradient-12" x1="118.21" y1="169.5" x2="142.46" y2="169.5" gradientTransform="matrix(-1, 0, 0, 1, 246.66, 0)" xlink:href="#linear-gradient"/><linearGradient id="linear-gradient-13" x1="28.44" y1="53.81" x2="40.42" y2="53.81" xlink:href="#linear-gradient"/><linearGradient id="linear-gradient-14" x1="40.34" y1="57" x2="50.42" y2="57" xlink:href="#linear-gradient"/><linearGradient id="linear-gradient-15" x1="74.29" y1="253.64" x2="77.7" y2="253.64" gradientUnits="userSpaceOnUse"><stop offset="0" stop-color="#0d5500"/><stop offset="0.66" stop-color="#627f08"/><stop offset="1" stop-color="#a9d42b"/></linearGradient><linearGradient id="linear-gradient-16" x1="157.42" y1="287" x2="157.42" y2="287" xlink:href="#linear-gradient-15"/></defs><title>tree1</title><g id="Layer_2" data-name="Layer 2"><g id="Layer_1-2" data-name="Layer 1"><path class="cls-1" d="M109.34,2.56a3.43,3.43,0,0,0-1,.84l1.1,0a1.88,1.88,0,0,1,.36-.55Z"/><path class="cls-2" d="M109.45,3.44l1.13,0c-.25-.21-.51-.4-.77-.59A1.88,1.88,0,0,0,109.45,3.44Z"/><path class="cls-3" d="M109.34,2.56A14.48,14.48,0,0,0,101.17,0H67.38c-4,.64-8,1.34-12,2,3.94-.66,7.93-1.36,12-2H62.64a14.49,14.49,0,0,0-8.2,2.58c17.83.83,36.06.06,53.9.82A3.43,3.43,0,0,1,109.34,2.56Z"/><path class="cls-4" d="M109.45,3.44l-1.1,0a.44.44,0,0,0,.07.6C108.94,4.52,109.19,4,109.45,3.44Z"/><path class="cls-5" d="M55.44,1.58a15.74,15.74,0,0,0-2.68,2.29,17.69,17.69,0,0,0-4.53,11.67c0,16.3,0,52.12,0,63.91,23.35.36,46.3-2.12,69.64-1.9q-.13-31-.27-62a17,17,0,0,0-6-13l-1.13,0c-.26.52-.51,1.08-1,.56a.44.44,0,0,1-.07-.6C91.5,1.63,73.27,2.41,55.44,1.58Z"/><path class="cls-6" d="M117.92,94.08q0-8.27-.07-16.54c-23.33-.22-46.28,2.26-69.64,1.9,0,2.28,0,3.67,0,3.84.1,2.68.14,9.31.14,21.17C71.37,97.15,94.42,90.84,117.92,94.08Z"/><path class="cls-7" d="M134.46,712a320.85,320.85,0,0,1-14.19-69.36q-1.18-274.29-2.35-548.56c-23.5-3.24-46.55,3.06-69.55,10.37,0,4.42,0,9.56,0,15.5a30.78,30.78,0,0,0-6.11,10.58A33.94,33.94,0,0,0,41,146.78a77.54,77.54,0,0,0,7.23,14.05c-.32,39.9-.05,94.55,0,104.36.14,53.63-.91,94.4-1.23,114.63-.83,52.28-2.29,134.54-5,262.84A190.4,190.4,0,0,1,42.16,670a192.82,192.82,0,0,1-4.56,31c-3,13-6.31,27.35-16,44A136.34,136.34,0,0,1,0,773l37.6-4L33,785l37.8-1.13L94.58,801l25.07-20,45-2A336.05,336.05,0,0,1,134.46,712Z"/><path class="cls-8" d="M16.69,667.46"/><ellipse class="cls-9" cx="81.91" cy="423.22" rx="15.41" ry="26"/><ellipse class="cls-10" cx="81.91" cy="423.22" rx="8.35" ry="16.5"/><ellipse class="cls-11" cx="81.99" cy="422.99" rx="5.43" ry="10.73"/><ellipse class="cls-9" cx="53.37" cy="136.75" rx="10.95" ry="18.47"/><ellipse class="cls-10" cx="53.37" cy="136.75" rx="5.93" ry="11.72"/><ellipse class="cls-11" cx="53.43" cy="136.58" rx="3.86" ry="7.62"/><polygon class="cls-12" points="145.13 490.21 117.19 493.66 117.58 481.67 145.13 490.21"/><path class="cls-13" d="M83,453.17c0,8.08-2,18.45,1.28,26"/><path class="cls-13" d="M81.55,453.17c-.12,8.79-1.95,18,1.34,26.4.69,1.78,3.6,1,2.89-.8-3.18-8.17-1.35-17.09-1.23-25.6a1.5,1.5,0,0,0-3,0Z"/><path class="cls-13" d="M52,449.17c0,8.08-2,18.45,1.28,26"/><path class="cls-13" d="M50.55,449.17c-.12,8.79-1.95,18,1.34,26.4.69,1.78,3.6,1,2.89-.8-3.18-8.17-1.35-17.09-1.23-25.6a1.5,1.5,0,0,0-3,0Z"/><path class="cls-13" d="M103,206.17c0,8.08-2,18.45,1.28,26"/><path class="cls-13" d="M101.55,206.17c-.12,8.79-1.95,18,1.34,26.4.69,1.78,3.6,1,2.89-.8-3.18-8.17-1.35-17.09-1.23-25.6a1.5,1.5,0,0,0-3,0Z"/><path class="cls-13" d="M65,147.17c0,8.08-2,18.45,1.28,26"/><path class="cls-13" d="M63.55,147.17c-.12,8.79-1.95,18,1.34,26.4.69,1.78,3.6,1,2.89-.8-3.18-8.17-1.35-17.09-1.23-25.6a1.5,1.5,0,0,0-3,0Z"/><path class="cls-13" d="M80.33,69.17,79,43.17C79,51.24,77,61.62,80.33,69.17Z"/><path class="cls-13" d="M81.83,69.17l-1.28-26a1.5,1.5,0,0,0-3,0c-.12,8.79-1.95,18,1.34,26.4.69,1.78,3.6,1,2.89-.8-3.18-8.17-1.35-17.09-1.23-25.6h-3l1.28,26C78.93,71.09,81.93,71.1,81.83,69.17Z"/><path class="cls-13" d="M91,213.17c0,8.08-2,18.45,1.28,26"/><path class="cls-13" d="M89.55,213.17c-.12,8.79-1.95,18,1.34,26.4.69,1.78,3.6,1,2.89-.8-3.18-8.17-1.35-17.09-1.23-25.6a1.5,1.5,0,0,0-3,0Z"/><path class="cls-13" d="M96.33,123.17,95,97.17C95,105.24,93,115.62,96.33,123.17Z"/><path class="cls-13" d="M97.83,123.17l-1.28-26a1.5,1.5,0,0,0-3,0c-.12,8.79-1.95,18,1.34,26.4.69,1.78,3.6,1,2.89-.8-3.18-8.17-1.35-17.09-1.23-25.6h-3l1.28,26C94.93,125.09,97.93,125.1,97.83,123.17Z"/><path class="cls-13" d="M58.69,58.43a18.22,18.22,0,0,0,.65,1.74l-.09-1.75Z"/><path class="cls-13" d="M57.24,58.82c.23.71.5,1.41.8,2.1a1.5,1.5,0,0,0,2.8-.76l-.09-1.75a1.53,1.53,0,0,0-1.5-1.5h-.56a1.5,1.5,0,0,0,0,3h.56l-1.5-1.5.09,1.75,2.8-.76c-.16-.37-.35-.93-.49-1.38a1.53,1.53,0,0,0-1.85-1A1.52,1.52,0,0,0,57.24,58.82Z"/><path class="cls-13" d="M90,169.17c0,8.08-2,18.45,1.28,26"/><path class="cls-13" d="M88.55,169.17c-.12,8.79-1.95,18,1.34,26.4.69,1.78,3.6,1,2.89-.8-3.18-8.17-1.35-17.09-1.23-25.6a1.5,1.5,0,0,0-3,0Z"/><path class="cls-13" d="M96,129.17c0,8.08-2,18.45,1.28,26"/><path class="cls-13" d="M94.55,129.17c-.12,8.79-1.95,18,1.34,26.4.69,1.78,3.6,1,2.89-.8-3.18-8.17-1.35-17.09-1.23-25.6a1.5,1.5,0,0,0-3,0Z"/><path class="cls-13" d="M60,436.17c0,8.08-2,18.45,1.28,26"/><path class="cls-13" d="M58.55,436.17c-.12,8.79-1.95,18,1.34,26.4.69,1.78,3.6,1,2.89-.8-3.18-8.17-1.35-17.09-1.23-25.6a1.5,1.5,0,0,0-3,0Z"/><path class="cls-13" d="M70.92,472v27"/><path class="cls-13" d="M69.42,472v27a1.5,1.5,0,0,0,3,0V472a1.5,1.5,0,0,0-3,0Z"/><path class="cls-13" d="M64.35,373.17v-19"/><path class="cls-13" d="M65.85,373.17v-19a1.5,1.5,0,0,0-3,0v19a1.5,1.5,0,0,0,3,0Z"/><path class="cls-13" d="M56.92,354V335"/><path class="cls-13" d="M58.42,354V335a1.5,1.5,0,0,0-3,0v19a1.5,1.5,0,0,0,3,0Z"/><path class="cls-13" d="M86.19,498.17"/><path class="cls-13" d="M86.19,499.67a1.5,1.5,0,0,0,0-3,1.5,1.5,0,0,0,0,3Z"/><path class="cls-13" d="M86.19,498.17c1.12,8.95-1.32,19.45-3.85,28"/><path class="cls-13" d="M84.69,498.17c1,9.4-1.19,18.63-3.8,27.6a1.5,1.5,0,0,0,2.89.8c2.68-9.21,4.88-18.76,3.91-28.4-.19-1.9-3.19-1.92-3,0Z"/><path class="cls-13" d="M100.19,330.17c1.12,8.95-1.32,19.45-3.85,28"/><path class="cls-13" d="M98.69,330.17c1,9.4-1.19,18.63-3.8,27.6a1.5,1.5,0,0,0,2.89.8c2.68-9.21,4.88-18.76,3.91-28.4-.19-1.9-3.19-1.92-3,0Z"/><path class="cls-13" d="M105.19,295.17c1.12,8.95-1.32,19.45-3.85,28"/><path class="cls-13" d="M103.69,295.17c1,9.4-1.19,18.63-3.8,27.6a1.5,1.5,0,0,0,2.89.8c2.68-9.21,4.88-18.76,3.91-28.4-.19-1.9-3.19-1.92-3,0Z"/><path class="cls-13" d="M91.19,305.17c1.12,8.95-1.32,19.45-3.85,28"/><path class="cls-13" d="M89.69,305.17c1,9.4-1.19,18.63-3.8,27.6a1.5,1.5,0,0,0,2.89.8c2.68-9.21,4.88-18.76,3.91-28.4-.19-1.9-3.19-1.92-3,0Z"/><path class="cls-13" d="M67.19,249.17c1.12,8.95-1.32,19.45-3.85,28"/><path class="cls-13" d="M65.69,249.17c1,9.4-1.19,18.63-3.8,27.6a1.5,1.5,0,0,0,2.89.8c2.68-9.21,4.88-18.76,3.91-28.4-.19-1.9-3.19-1.92-3,0Z"/><path class="cls-13" d="M87.19,343.17c1.12,8.95-1.32,19.45-3.85,28"/><path class="cls-13" d="M85.69,343.17c1,9.4-1.19,18.63-3.8,27.6a1.5,1.5,0,0,0,2.89.8c2.68-9.21,4.88-18.76,3.91-28.4-.19-1.9-3.19-1.92-3,0Z"/><path class="cls-13" d="M70.77,526.17c0,7.37-1.4,15.88,1.28,23"/><path class="cls-13" d="M69.27,526.17c-.09,7.86-1.22,15.79,1.34,23.4.61,1.82,3.51,1,2.89-.8-2.47-7.35-1.32-15-1.23-22.6a1.5,1.5,0,0,0-3,0Z"/><path class="cls-13" d="M55.77,374.17c0,7.37-1.4,15.88,1.28,23"/><path class="cls-13" d="M54.27,374.17c-.09,7.86-1.22,15.79,1.34,23.4.61,1.82,3.51,1,2.89-.8-2.47-7.35-1.32-15-1.23-22.6a1.5,1.5,0,0,0-3,0Z"/><path class="cls-13" d="M84.9,545.17c0,8.55,1.84,18.8-1.28,27"/><path class="cls-13" d="M83.4,545.17c.1,8.89,1.71,18-1.23,26.6-.62,1.83,2.27,2.62,2.89.8,3-8.88,1.44-18.23,1.34-27.4a1.5,1.5,0,0,0-3,0Z"/><path class="cls-13" d="M72.92,602v26"/><path class="cls-13" d="M71.42,602v26a1.5,1.5,0,0,0,3,0V602a1.5,1.5,0,0,0-3,0Z"/><path class="cls-13" d="M73.34,672.17c0,6.74.49,13.56-1.28,20"/><path class="cls-13" d="M71.84,672.17c0,6.59.39,13.15-1.23,19.6-.47,1.87,2.42,2.67,2.89.8,1.68-6.72,1.37-13.53,1.34-20.4a1.5,1.5,0,0,0-3,0Z"/><path class="cls-13" d="M63.07,560.17v11"/><path class="cls-13" d="M61.57,560.17v11a1.5,1.5,0,0,0,3,0v-11a1.5,1.5,0,0,0-3,0Z"/><path class="cls-13" d="M102.88,643.17v7"/><path class="cls-13" d="M101.38,643.17v7a1.5,1.5,0,0,0,3,0v-7a1.5,1.5,0,0,0-3,0Z"/><path class="cls-13" d="M106.92,522v7"/><path class="cls-13" d="M105.42,522v7a1.5,1.5,0,0,0,3,0v-7a1.5,1.5,0,0,0-3,0Z"/><path class="cls-13" d="M105.92,538v7"/><path class="cls-13" d="M104.42,538v7a1.5,1.5,0,0,0,3,0v-7a1.5,1.5,0,0,0-3,0Z"/><path class="cls-13" d="M96.92,526v7"/><path class="cls-13" d="M95.42,526v7a1.5,1.5,0,0,0,3,0v-7a1.5,1.5,0,0,0-3,0Z"/><path class="cls-13" d="M113.92,647v7"/><path class="cls-13" d="M112.42,647v7a1.5,1.5,0,0,0,3,0v-7a1.5,1.5,0,0,0-3,0Z"/><path class="cls-13" d="M90,688.17v10"/><path class="cls-13" d="M88.54,688.17v10a1.5,1.5,0,0,0,3,0v-10a1.5,1.5,0,0,0-3,0Z"/><path class="cls-13" d="M64.35,711.17v20"/><path class="cls-13" d="M62.85,711.17v20a1.5,1.5,0,0,0,3,0v-20a1.5,1.5,0,0,0-3,0Z"/><path class="cls-14" d="M46.22,684.77"/><line class="cls-15" x1="178.02" y1="629.17" x2="194.71" y2="624.17"/><polygon class="cls-16" points="16.7 767.01 40.16 727 35.6 767 16.7 767.01"/><polygon class="cls-16" points="69.79 780 81.19 731 93.72 797 69.79 780"/><polygon class="cls-16" points="116.51 777 113.09 731 125.63 727 150.03 775.59 116.51 777"/><path class="cls-16" d="M48.46,697.22c1.25,12.12,2.93,37.57,2.93,37.57l4.36-28.9Z"/><path class="cls-16" d="M90.62,708.22c1.25,12.12,2.93,37.57,2.93,37.57l4.36-28.9Z"/><path class="cls-16" d="M89.48,648.22c1.25,12.12,2.93,37.57,2.93,37.57l4.36-28.9Z"/><path class="cls-16" d="M42.76,742.22c1.25,12.12,2.93,37.57,2.93,37.57L50,750.89Z"/><path class="cls-16" d="M87.2,589.22c1.25,12.12,2.93,37.57,2.93,37.57l4.36-28.9Z"/><path class="cls-16" d="M48.46,596.22c1.25,12.12,2.93,37.57,2.93,37.57l4.36-28.9Z"/><path class="cls-16" d="M58.13,578.22c1.25,12.12,2.93,37.57,2.93,37.57l4.36-28.9Z"/><path class="cls-16" d="M48.46,530.22c1.25,12.12,2.93,37.57,2.93,37.57l4.36-28.9Z"/><path class="cls-16" d="M56.46,495.22c1.25,12.12,2.93,37.57,2.93,37.57l4.36-28.9Z"/><path class="cls-16" d="M89.46,463.22c1.25,12.12,2.93,37.57,2.93,37.57l4.36-28.9Z"/><path class="cls-16" d="M80.29,300.85c-.05-12.18.77-37.67.77-37.67l-7.17,28.34Z"/><path class="cls-16" d="M75.29,209.85c-.05-12.18.77-37.67.77-37.67l-7.17,28.34Z"/><path class="cls-16" d="M58.89,46.51l6.4,9.34c-.05-12.18.77-37.67.77-37.67Z"/><path class="cls-16" d="M106.29,286.85c-.05-12.18.77-37.67.77-37.67l-7.17,28.34Z"/><path class="cls-16" d="M106.46,344.22c1.25,12.12,2.93,37.57,2.93,37.57l4.36-28.9Z"/><path class="cls-16" d="M48.46,404.22c1.25,12.12,2.93,37.57,2.93,37.57l4.36-28.9Z"/><path class="cls-16" d="M103.46,439.22c1.25,12.12,2.93,37.57,2.93,37.57l4.36-28.9Z"/><path class="cls-16" d="M66.46,310.22c1.25,12.12,2.93,37.57,2.93,37.57l4.36-28.9Z"/><path class="cls-16" d="M87.46,244.22c1.25,12.12,2.93,37.57,2.93,37.57l4.36-28.9Z"/><path class="cls-16" d="M52.46,172.22c1.25,12.12,2.93,37.57,2.93,37.57l4.36-28.9Z"/><path class="cls-16" d="M84.46,15.22c1.25,12.12,2.93,37.57,2.93,37.57l4.36-28.9Z"/><path class="cls-16" d="M55.46,66.22c1.25,12.12,2.93,37.57,2.93,37.57l4.36-28.9Z"/><path class="cls-16" d="M93.39,94.79l.91-6.06L93,88.86C93.23,92.45,93.39,94.79,93.39,94.79Z"/><path class="cls-16" d="M91.83,73.13c.45,5.81.86,11.59,1.15,15.72l1.32-.13,2.38-15.8Z"/><path class="cls-16" d="M97.74,65.89l-7.29-8.67c.44,4.23.93,10.08,1.38,15.91l4.85-.2Z"/><path class="cls-16" d="M107.39,118.79l4.36-28.9-1.29-1.53c-1.79-.1-3.57-.15-5.35-.15C106.22,101.11,107.39,118.79,107.39,118.79Z"/><path class="cls-16" d="M105.11,88.2c1.78,0,3.56,0,5.35.15l-6-7.13C104.66,83.24,104.88,85.63,105.11,88.2Z"/><path class="cls-16" d="M80.46,117.22c1.25,12.12,2.93,37.57,2.93,37.57l4.36-28.9Z"/><path class="cls-16" d="M53.46,291.22c1.25,12.12,2.93,37.57,2.93,37.57l4.36-28.9Z"/><path class="cls-16" d="M99.46,388.22c1.25,12.12,2.93,37.57,2.93,37.57l4.36-28.9Z"/><path class="cls-16" d="M102,560.22c1.25,12.12,2.93,37.57,2.93,37.57l4.36-28.9Z"/><path class="cls-16" d="M112.27,685.22c1.25,12.12,2.93,37.57,2.93,37.57l4.36-28.9Z"/><path class="cls-16" d="M102,735.22c1.25,12.12,2.93,37.57,2.93,37.57l4.36-28.9Z"/><path class="cls-16" d="M59.85,742.22c1.25,12.12,2.93,37.57,2.93,37.57l4.36-28.9Z"/><polygon class="cls-17" points="47 293 24.21 293 49.42 312 47 293"/><polygon class="cls-18" points="45.13 503 23.21 503 47.45 522 45.13 503"/><polygon class="cls-19" points="116.54 320 138.46 320 114.21 339 116.54 320"/><polygon class="cls-20" points="106.54 160 128.46 160 104.21 179 106.54 160"/><path class="cls-21" d="M28.44,50l12,7.63q0-3.81-.07-7.63Z"/><path class="cls-22" d="M50.42,50H40.34q.07,3.81.07,7.63l10,6.37Z"/><path class="cls-16" d="M56.42,648v9.33"/><path class="cls-16" d="M54.92,648v9.33a1.5,1.5,0,0,0,3,0V648a1.5,1.5,0,0,0-3,0Z"/><path class="cls-16" d="M110.42,667v9.33"/><path class="cls-16" d="M108.92,667v9.33a1.5,1.5,0,0,0,3,0V667a1.5,1.5,0,0,0-3,0Z"/><path class="cls-16" d="M77.42,706v9.33"/><path class="cls-16" d="M75.92,706v9.33a1.5,1.5,0,0,0,3,0V706a1.5,1.5,0,0,0-3,0Z"/><path class="cls-16" d="M109.42,499v9.33"/><path class="cls-16" d="M107.92,499v9.33a1.5,1.5,0,0,0,3,0V499a1.5,1.5,0,0,0-3,0Z"/><path class="cls-16" d="M82.42,387v9.33"/><path class="cls-16" d="M80.92,387v9.33a1.5,1.5,0,0,0,3,0V387a1.5,1.5,0,0,0-3,0Z"/><path class="cls-16" d="M71.42,377v9.33"/><path class="cls-16" d="M69.92,377v9.33a1.5,1.5,0,0,0,3,0V377a1.5,1.5,0,0,0-3,0Z"/><path class="cls-16" d="M125.42,706v9.33"/><path class="cls-16" d="M123.92,706v9.33a1.5,1.5,0,0,0,3,0V706a1.5,1.5,0,0,0-3,0Z"/><path class="cls-16" d="M55.42,667v9.33"/><path class="cls-16" d="M53.92,667v9.33a1.5,1.5,0,0,0,3,0V667a1.5,1.5,0,0,0-3,0Z"/><path class="cls-16" d="M63.42,683v9.33"/><path class="cls-16" d="M61.92,683v9.33a1.5,1.5,0,0,0,3,0V683a1.5,1.5,0,0,0-3,0Z"/><path class="cls-16" d="M77.42,642v9.33"/><path class="cls-16" d="M75.92,642v9.33a1.5,1.5,0,0,0,3,0V642a1.5,1.5,0,0,0-3,0Z"/><path class="cls-16" d="M98.42,508v9.33"/><path class="cls-16" d="M96.92,508v9.33a1.5,1.5,0,0,0,3,0V508a1.5,1.5,0,0,0-3,0Z"/><path class="cls-16" d="M74.42,226v9.33"/><path class="cls-16" d="M72.92,226v9.33a1.5,1.5,0,0,0,3,0V226a1.5,1.5,0,0,0-3,0Z"/><path class="cls-16" d="M53.42,263v9.33"/><path class="cls-16" d="M51.92,263v9.33a1.5,1.5,0,0,0,3,0V263a1.5,1.5,0,0,0-3,0Z"/><path class="cls-16" d="M105.42,58v9.33"/><path class="cls-16" d="M103.92,58v9.33a1.5,1.5,0,0,0,3,0V58a1.5,1.5,0,0,0-3,0Z"/><path class="cls-16" d="M72.42,29v9.33"/><path class="cls-16" d="M70.92,29v9.33a1.5,1.5,0,0,0,3,0V29a1.5,1.5,0,0,0-3,0Z"/><path class="cls-16" d="M107.42,137v9.33"/><path class="cls-16" d="M105.92,137v9.33a1.5,1.5,0,0,0,3,0V137a1.5,1.5,0,0,0-3,0Z"/><path class="cls-16" d="M106.42,23v9.33"/><path class="cls-16" d="M104.92,23v9.33a1.5,1.5,0,0,0,3,0V23a1.5,1.5,0,0,0-3,0Z"/><path class="cls-16" d="M77.42,86v9.33"/><path class="cls-16" d="M75.92,86v9.33a1.5,1.5,0,0,0,3,0V86a1.5,1.5,0,0,0-3,0Z"/><path class="cls-16" d="M69.42,58v9.33"/><path class="cls-16" d="M67.92,58v9.33a1.5,1.5,0,0,0,3,0V58a1.5,1.5,0,0,0-3,0Z"/><path class="cls-16" d="M81.42,101v9.33"/><path class="cls-16" d="M79.92,101v9.33a1.5,1.5,0,0,0,3,0V101a1.5,1.5,0,0,0-3,0Z"/><path class="cls-16" d="M102.42,38v9.33"/><path class="cls-16" d="M100.92,38v9.33a1.5,1.5,0,0,0,3,0V38a1.5,1.5,0,0,0-3,0Z"/><path class="cls-16" d="M106.42,177v9.33"/><path class="cls-16" d="M104.92,177v9.33a1.5,1.5,0,0,0,3,0V177a1.5,1.5,0,0,0-3,0Z"/><path class="cls-16" d="M84.42,195v9.33"/><path class="cls-16" d="M82.92,195v9.33a1.5,1.5,0,0,0,3,0V195a1.5,1.5,0,0,0-3,0Z"/><path class="cls-16" d="M72.42,131v9.33"/><path class="cls-16" d="M70.92,131v9.33a1.5,1.5,0,0,0,3,0V131a1.5,1.5,0,0,0-3,0Z"/><path class="cls-16" d="M72.42,157v9.33"/><path class="cls-16" d="M70.92,157v9.33a1.5,1.5,0,0,0,3,0V157a1.5,1.5,0,0,0-3,0Z"/><path class="cls-16" d="M62.42,226v9.33"/><path class="cls-16" d="M60.92,226v9.33a1.5,1.5,0,0,0,3,0V226a1.5,1.5,0,0,0-3,0Z"/><path class="cls-16" d="M55.42,249v9.33"/><path class="cls-16" d="M53.92,249v9.33a1.5,1.5,0,0,0,3,0V249a1.5,1.5,0,0,0-3,0Z"/><path class="cls-16" d="M54.42,96v9.33"/><path class="cls-16" d="M52.92,96v9.33a1.5,1.5,0,0,0,3,0V96a1.5,1.5,0,0,0-3,0Z"/><path class="cls-16" d="M65.42,91v9.33"/><path class="cls-16" d="M63.92,91v9.33a1.5,1.5,0,0,0,3,0V91a1.5,1.5,0,0,0-3,0Z"/></g><g id="Layer_2-2" data-name="Layer 2"><path class="cls-23" d="M77.7,255c-1.12-.8-2.26-1.67-3.41-2.63A24.23,24.23,0,0,1,77.7,255Z"/><path class="cls-24" d="M157.42,287"/></g></g></svg>