<svg xmlns="http://www.w3.org/2000/svg" xmlns:xlink="http://www.w3.org/1999/xlink" viewBox="0 0 88.16 90.44"><defs><style>.cls-1{fill:url(#linear-gradient);}</style><linearGradient id="linear-gradient" y1="45.22" x2="88.16" y2="45.22" gradientUnits="userSpaceOnUse"><stop offset="0" stop-color="#0d5500"/><stop offset="0.66" stop-color="#627f08"/><stop offset="1" stop-color="#a9d42b"/></linearGradient></defs><title>vine1</title><g id="Layer_2" data-name="Layer 2"><g id="Layer_1-2" data-name="Layer 1"><path class="cls-1" d="M88.16,79.14a40.29,40.29,0,0,0-15-11,43.65,43.65,0,0,0-22.53-3,24,24,0,0,0,0,24c-1.33.71-4,1.85-6.46,1-3.83-1.3-4.72-6.42-5.34-10a26.53,26.53,0,0,1,1.07-13c-1.75-6.89-8.67-11.57-16.09-11-7.69.59-13.81,6.66-14,14-3.11,1.63-6.75,1.08-8.58-1a5.76,5.76,0,0,1-1.07-5A26.2,26.2,0,0,1,11,49.43a28.17,28.17,0,0,1,10.91-4.14l-.83-.93a71.73,71.73,0,0,1-4.78-6.22A70.44,70.44,0,0,1,4.85,10C1.74,7.45,1.94,3.11,4.48,1.14a6.66,6.66,0,0,1,8.58,1,58.61,58.61,0,0,0,12.87,36A61.91,61.91,0,0,0,36.45,48.46c1.23,1,2.46,1.83,3.66,2.63a22.1,22.1,0,0,1,3,3c.57,0,1.29,0,2.11,0,6.34.23,19.56,1.77,31.14,11A46.11,46.11,0,0,1,88.16,79.14Z"/></g></g></svg>