<svg xmlns="http://www.w3.org/2000/svg" viewBox="0 0 84.53 80.8"><defs><style>.cls-1{fill:#bc7240;}</style></defs><title>vine2</title><g id="Layer_2" data-name="Layer 2"><g id="Layer_1-2" data-name="Layer 1"><path class="cls-1" d="M1.36,7.72h0a6.44,6.44,0,0,0-.53.82C-.23,10.48-.93,14.47,2.95,25.27,5.53,32.48,8,39.45,13.66,46.91,36,76.52,71.91,82.24,80.83,80.52c.89-.17,3.17-.61,3.62-2.06.31-1,.07-3.56-9.37-9.78C54.3,55,43.55,59.55,30,47.59A57.76,57.76,0,0,1,14.17,23.83a58.48,58.48,0,0,1-2.72-11.66C11.72,5,9.32.14,7.07,0,5.12-.12,2.77,3.25,1.36,7.72Z"/></g></g></svg>